<?xml version="1.0" encoding="utf-8"?>
<svg viewBox="0 0 50 50" xmlns="http://www.w3.org/2000/svg">
  <path d="M48.266 34.194a.746.746 0 100-1.493h-3.964a1.859 1.859 0 00-.333-.539 1.7 1.7 0 00-1.258-.585l-3.639-.065h-.023c-.707 0-1.32.443-1.602 1.083-1.065-.481-2.252-1.624-2.833-4.258-.219-.989-.886-1.374-1.729-1.861a17.587 17.587 0 01-1.526-.961c-1.147-.814-2.07-2.902-2.599-5.881a3.37 3.37 0 00-6.684.757c.061 1.205.184 2.393.368 3.53.349 2.167 1.585 4.007 2.558 5.167H19.56a3.924 3.924 0 00-2.793 1.157 3.922 3.922 0 00-1.158 2.794v11.732a3.955 3.955 0 003.951 3.951h10.301c1.056 0 2.09-.088 3.073-.26 1.446-.254 3.323-.11 4.184-.021.082.933.821 1.67 1.726 1.683l3.636.064h.026c.591 0 1.116-.31 1.438-.784h4.324a.747.747 0 000-1.493h-3.992l.162-13.717h3.828zM32.675 46.992c-.898.157-1.846.237-2.815.237H19.559a2.461 2.461 0 01-2.458-2.458V33.039c0-.657.255-1.274.72-1.738a2.441 2.441 0 011.737-.72l6.415.001v4.479a7.625 7.625 0 004.715 7.063l.905.376a.745.745 0 00.975-.403.747.747 0 00-.403-.976l-.905-.376a6.137 6.137 0 01-3.794-5.684v-5.038a.75.75 0 00-.23-.751c-.028-.024-2.819-2.487-3.319-5.587a30.972 30.972 0 01-.35-3.367 1.869 1.869 0 01.516-1.394 1.857 1.857 0 011.357-.582c.911 0 1.688.654 1.848 1.554.766 4.315 2.166 6.1 3.205 6.837.67.475 1.21.787 1.645 1.037.799.461.946.568 1.018.89.627 2.845 2.083 4.771 4.119 5.475l-.152 12.805c-.989-.096-2.892-.22-4.448.052zm9.829 1.703h-.002l-3.637-.064c-.146-.003-.267-.171-.264-.37l.176-14.896c.003-.196.127-.36.269-.36h.003l3.638.064a.237.237 0 01.167.085.429.429 0 01.098.285v.009l-.176 14.887c-.004.196-.128.36-.272.36zM4.552 23.293a.746.746 0 00-.746.747v.639a.746.746 0 101.493 0v-.639a.746.746 0 00-.747-.747zm0 4.386a.747.747 0 00-.746.747v.64a.747.747 0 101.493 0v-.64a.747.747 0 00-.747-.747zm-1.873-1.873H2.04a.747.747 0 000 1.494h.64a.747.747 0 10-.001-1.494zm4.386 0h-.64a.747.747 0 000 1.494h.64a.747.747 0 000-1.494zM45.901 3.802a.746.746 0 00.747-.747v-.64a.746.746 0 10-1.493 0v.64c0 .413.334.747.746.747zm0 4.386a.746.746 0 00.747-.747v-.64a.746.746 0 10-1.493 0v.64c0 .413.334.747.746.747zm-2.512-2.513h.64a.747.747 0 000-1.494h-.64a.746.746 0 000 1.494zm4.386 0h.639a.746.746 0 100-1.494h-.639a.746.746 0 100 1.494z"/>
  <circle cx="9.094" cy="33.703" r=".916"/>
  <circle cx="38.242" cy="3.076" r=".916"/>
  <path d="M 10.417 22.416 C 6.604 22.416 3.501 19.313 3.501 15.499 C 3.501 11.686 6.604 8.582 10.417 8.582 C 14.235 8.586 17.33 11.681 17.334 15.499 C 17.33 19.317 14.235 22.412 10.417 22.416 Z M 10.417 9.986 C 7.373 9.989 4.905 12.455 4.901 15.499 C 4.905 18.543 7.373 21.01 10.417 21.013 C 13.462 21.011 15.93 18.544 15.933 15.499 C 15.929 12.455 13.461 9.988 10.417 9.986 Z"/>
  <path d="M 25.917 13.833 C 22.104 13.833 19.001 10.729 19.001 6.916 C 19.001 3.103 22.104 0 25.917 0 C 29.731 0 32.834 3.103 32.834 6.917 C 32.834 10.731 29.731 13.833 25.917 13.833 Z M 25.917 1.403 C 22.873 1.406 20.405 3.872 20.401 6.916 C 20.405 9.96 22.873 12.427 25.917 12.43 C 28.962 12.428 31.431 9.961 31.434 6.916 C 31.43 3.871 28.962 1.405 25.917 1.403 Z"/>
  <path d="M41.334 23.751c-3.813 0-6.916-3.104-6.916-6.917 0-3.813 3.104-6.917 6.916-6.917a6.925 6.925 0 016.917 6.917 6.926 6.926 0 01-6.917 6.917zm0-12.431a5.521 5.521 0 00-5.516 5.513 5.52 5.52 0 005.516 5.513 5.52 5.52 0 005.517-5.513 5.52 5.52 0 00-5.517-5.513z"/>
</svg>