<svg xmlns="http://www.w3.org/2000/svg" viewBox="0 0 50 50"><path class="st0" d="M24.322 26.455l-.904-.471a.77.77 0 00.021-.929.775.775 0 00-1.082-.174l-.377.272c-.021.016-.038.035-.058.052l-9.031-4.7a.775.775 0 00-.771.032L.531 27.854l-.01.008c-.036.022-.068.051-.099.078l-.023.021a.618.618 0 00-.084.1c-.006.008-.011.018-.017.025a.706.706 0 00-.054.098l-.012.023a.74.74 0 00-.041.123l-.005.025a.675.675 0 00-.014.11l-.002.028-.001.015v12.509c0 .291.163.56.421.69l11.359 5.836c.139.113.31.177.485.177.013 0 .025-.002.038-.003h.001a.784.784 0 00.553-.231l11.356-7.334a.779.779 0 00.355-.649V27.198c0-.017-.002-.03-.003-.048a.769.769 0 00-.412-.695zM12.57 22.086l9.884 5.145-10.038 6.304-9.91-5.095 10.064-6.354zM1.72 29.779l9.979 5.128v10.767L1.72 40.545V29.779zm21.469 9.301l-9.939 6.418V34.84l9.939-6.238V39.08zM49.956 9.333c0-.01 0-.019-.002-.029a.923.923 0 00-.026-.127l-.012-.029c-.012-.034-.023-.066-.041-.098l-.014-.029a.896.896 0 00-.074-.108l-.02-.022a.801.801 0 00-.078-.076c-.008-.008-.019-.016-.025-.023-.033-.025-.066-.05-.104-.07l-.013-.004-.006-.004-11.431-5.95a.775.775 0 00-.771.032L25.753 10.11l-.011.008a.665.665 0 00-.098.077c-.008.007-.018.014-.023.021a.88.88 0 00-.157.221l-.012.025a.887.887 0 00-.041.123l-.005.028a.792.792 0 00-.014.109l-.001.029-.001.013v8.826a.775.775 0 101.55 0v-7.556l9.979 5.128V27.93l-7.444-3.826a.776.776 0 10-.709 1.379l8.406 4.322c.141.11.311.174.482.174l.037-.002a.8.8 0 00.406-.112c.051-.032.1-.07.143-.113l11.36-7.188a.77.77 0 00.361-.655V9.399c0-.023-.003-.044-.005-.066zm-12.165-4.99l9.842 5.122-9.996 6.324-9.908-5.092 10.062-6.354zm10.62 17.139l-9.94 6.288V17.095l9.94-6.287v10.674zm-19.265.402a.775.775 0 10-.908-1.257l-.616.445a.775.775 0 10.909 1.256l.615-.444zm-3.849.87l-.615.446a.774.774 0 10.909 1.256l.616-.445a.776.776 0 00-.91-1.257zm5.723-2.405a.777.777 0 00.453-.147l.377-.273a.774.774 0 10-.908-1.256l-.377.272a.774.774 0 00.455 1.404zM43.844 48A6.165 6.165 0 0050 41.845a6.164 6.164 0 00-6.156-6.156 6.162 6.162 0 00-6.156 6.156A6.163 6.163 0 0043.844 48zm0-10.852a4.7 4.7 0 014.695 4.695c0 2.588-2.107 4.693-4.695 4.693s-4.693-2.105-4.693-4.693a4.698 4.698 0 014.693-4.695zm-1.535 6.502a.73.73 0 00.422-.136l1.514-1.075a.735.735 0 00.311-.596v-3.178a.73.73 0 00-1.461 0v2.799l-1.205.856a.732.732 0 00-.174 1.021.713.713 0 00.593.309zm2.596-9.836h-2.294a.927.927 0 100 1.856h2.294a.927.927 0 000-1.856z"></path></svg>