<svg xmlns="http://www.w3.org/2000/svg" viewBox="0 0 50 50"><path d="M45.459 38.894V12.027a2.666 2.666 0 001.924-2.556 2.665 2.665 0 00-2.661-2.662c-.925 0-1.739.474-2.217 1.191L27.304 3.218l.003-.063c0-1.467-1.193-2.661-2.661-2.661s-2.662 1.194-2.662 2.661c0 .027.003.054.004.081L7.241 7.985a2.662 2.662 0 00-4.869 1.487c0 1.211.814 2.235 1.924 2.556v26.867a2.667 2.667 0 00-1.924 2.556 2.665 2.665 0 002.662 2.662c.911 0 1.715-.461 2.196-1.16l14.755 4.04a2.665 2.665 0 002.661 2.64 2.664 2.664 0 002.66-2.628l15.149-4.165a2.66 2.66 0 002.267 1.273 2.665 2.665 0 002.661-2.662 2.666 2.666 0 00-1.924-2.557zm-20.725 5.419l-.373-1.475c.088-.01.175-.018.285-.018 5.248 0 9.978-2.263 13.265-5.864a.73.73 0 00.104-.117 17.934 17.934 0 001.914-2.557l2.913 5.285a2.647 2.647 0 00-.78 1.849l-15.149 4.165a2.662 2.662 0 00-2.179-1.268zM6.823 39.485a2.663 2.663 0 00-1.051-.592V12.027a2.33 2.33 0 00.11-.035l8.393 12.127h-6.1c.074-1.689.403-3.342.981-4.923a.738.738 0 00-1.385-.507 17.912 17.912 0 00-1.087 6.167c0 3.775 1.158 7.388 3.349 10.448a.739.739 0 101.2-.859 16.354 16.354 0 01-3.056-8.851h7.053c.041 1.961.243 3.875.604 5.697a.737.737 0 00.867.58c.4-.079.66-.467.581-.867a30.313 30.313 0 01-.453-3.196l1.741 2.515a2.646 2.646 0 00-.431 1.446c0 .245.036.482.099.708L6.823 39.485zM43.104 11.58c.26.2.557.353.88.447v26.555l-3.21-5.825a17.842 17.842 0 001.836-7.9 17.86 17.86 0 00-3.358-10.438l3.852-2.839zm-1.99 12.539h-2.959a.737.737 0 000 1.475h2.959a16.357 16.357 0 01-1.229 5.549l-5.816-10.555a2.653 2.653 0 00.614-2.804l3.381-2.491a16.38 16.38 0 013.05 8.826zM25.383 41.271v-6.979c1.917.043 3.788.251 5.537.605a18.759 18.759 0 01-.79 1.808c-1.325 2.627-2.988 4.217-4.747 4.566zm6.064-3.902c.339-.671.646-1.387.922-2.138 1.392.362 2.682.825 3.828 1.375a16.483 16.483 0 01-7.077 4.116c.855-.867 1.64-1.99 2.327-3.353zm5.797-1.892c-1.305-.666-2.795-1.219-4.409-1.646.743-2.488 1.166-5.301 1.228-8.237h1.08l3.958 7.184a16.631 16.631 0 01-1.857 2.699zm-3.869-16.771c0 .654-.532 1.187-1.187 1.187a1.187 1.187 0 111.187-1.187zm-3.421 1.44l-3.465 3.973h-1.106v-6.948l4.15 1.411c-.002.042-.006.082-.006.124 0 .53.159 1.024.427 1.44zm-8.034 9.212a2.655 2.655 0 00-1.123-.252c-.396 0-.77.09-1.108.245l-2.992-4.324-.002-.171c0-3.055.422-6.046 1.204-8.634a33.02 33.02 0 006.009.674v7.223h-5.16a.737.737 0 100 1.475h5.16v1.485l-1.988 2.279zM12.035 14.23c1.308.669 2.804 1.225 4.426 1.654-.645 2.166-1.051 4.586-1.188 7.086L10.6 16.217c.427-.7.903-1.36 1.435-1.987zm6.337.586l.01-.026.214.073-.224-.047zm-1.448-.334a21.326 21.326 0 01-3.839-1.38l.088-.084 3.812 1.296-.061.168zm-7.236.419l-2.594-3.748c.042-.052.082-.105.12-.161l4.403 1.498a17.411 17.411 0 00-1.929 2.411zm9.924 16.868a1.187 1.187 0 112.37.001 1.187 1.187 0 01-2.37-.001zm3.847 0c0-.531-.158-1.024-.427-1.44l8.034-9.212a2.639 2.639 0 001.709.185l1.554 2.819h-4.498a.737.737 0 100 1.475h2.756c-.061 2.829-.471 5.528-1.189 7.898a32.889 32.889 0 00-6.014-.675V30.85a.739.739 0 00-1.476 0v10.199l-1.768-6.984a2.665 2.665 0 001.319-2.296zM44.722 8.285c.653 0 1.186.532 1.186 1.186a1.187 1.187 0 01-2.373 0c0-.654.532-1.186 1.187-1.186zM24.646 1.969a1.187 1.187 0 010 2.373 1.188 1.188 0 010-2.373zm-2.208 2.672a2.66 2.66 0 004.424-.015l15.2 4.783-.003.063c0 .324.062.634.168.921l-3.884 2.862c-3.298-3.887-8.213-6.361-13.698-6.361-3.458 0-6.816.985-9.711 2.849a.737.737 0 10.799 1.241 16.364 16.364 0 014.457-2.002c-.672.677-1.302 1.507-1.872 2.487a.738.738 0 001.276.742c1.245-2.141 2.754-3.448 4.314-3.764V13.5a.738.738 0 001.476 0V8.44c2.195.416 4.18 2.68 5.529 6.357a.737.737 0 101.385-.508c-.822-2.242-1.888-4.026-3.116-5.281 3.14.9 5.897 2.708 7.972 5.124l-3.347 2.465a2.647 2.647 0 00-3.799.588L7.689 9.595c.002-.042.006-.082.006-.124 0-.027-.003-.054-.004-.081l14.747-4.749zm-18.59 4.83c0-.654.532-1.186 1.186-1.186s1.186.532 1.186 1.186c0 .654-.532 1.186-1.186 1.186s-1.186-.532-1.186-1.186zm1.186 33.165a1.188 1.188 0 010-2.373 1.187 1.187 0 010 2.373zm2.563-1.895l4.67-2.868a17.945 17.945 0 008.062 4.425.737.737 0 10.352-1.434 16.44 16.44 0 01-7.108-3.794l3.285-2.018c.77 2.15 1.783 3.968 2.954 5.285a.735.735 0 001.041.06.736.736 0 00.061-1.041c-1.098-1.234-2.049-2.995-2.767-5.097l.861-.528a2.644 2.644 0 001.701.692l2.594 10.249a2.68 2.68 0 00-.919.896L7.69 41.548c.001-.033.005-.065.005-.099 0-.245-.036-.482-.098-.708zm17.049 7.414a1.187 1.187 0 010-2.373 1.188 1.188 0 010 2.373zm20.076-5.519a1.187 1.187 0 110-2.372 1.187 1.187 0 010 2.372z"></path></svg>