<svg xmlns="http://www.w3.org/2000/svg" viewBox="0 0 50 50"><path d="M24.991 34.932a.743.743 0 01-.743-.744v-.008c0-1.835-.638-6.708-6.543-12.304a10.624 10.624 0 01-3.306-7.918 10.528 10.528 0 013.161-7.312 10.533 10.533 0 017.354-3.058 10.532 10.532 0 017.544 3.076 10.52 10.52 0 013.129 7.519c0 2.938-1.175 5.669-3.306 7.69-4.827 4.576-6.547 9.363-6.547 12.314a.742.742 0 01-.743.745zm.001-29.858h-.066a9.056 9.056 0 00-6.323 2.63 9.05 9.05 0 00-2.718 6.285 9.13 9.13 0 002.842 6.807c1.607 1.523 4.841 4.969 6.283 9.221 1.242-3.554 3.805-6.906 6.249-9.223a9.022 9.022 0 002.843-6.611 9.05 9.05 0 00-2.692-6.464 9.049 9.049 0 00-6.418-2.645zm0 34.241c-4.178 0-8.113-.289-11.079-.81-2.397-.423-5.15-1.107-5.15-2.664 0-1.073 1.221-1.822 3.96-2.428 2.185-.481 5.242-.827 8.605-.969a.743.743 0 11.062 1.483c-7.192.306-10.462 1.373-11.074 1.91.255.213 1.203.782 4.394 1.291 2.815.45 6.466.698 10.282.698.514 0 .728-.004 1.153-.014l.221-.004h.016a.744.744 0 01.015 1.487l-.221.005c-.434.012-.655.015-1.184.015zm12.273-1.028a.747.747 0 01-.713-.527.746.746 0 01.498-.928l.696-.208c.004-.003.012-.004.02-.007 1.255-.338 1.733-.639 1.902-.778-.617-.547-3.948-1.625-11.282-1.916a.744.744 0 01.06-1.486c3.413.138 6.52.477 8.747.963 2.785.607 4.028 1.359 4.028 2.442 0 1.238-1.742 1.853-3.059 2.209l-.685.205a.712.712 0 01-.212.031zm2.49-2.352z"></path><path d="M24.992 17.651c-1.895 0-3.438-1.542-3.438-3.438s1.543-3.438 3.438-3.438c1.896 0 3.438 1.542 3.438 3.438s-1.542 3.438-3.438 3.438zm0-5.389a1.955 1.955 0 00-1.952 1.952c0 1.075.876 1.952 1.952 1.952a1.953 1.953 0 000-3.904zM6.165 32.06a3.62 3.62 0 01-3.615-3.616 3.618 3.618 0 013.615-3.614 3.619 3.619 0 013.615 3.614 3.62 3.62 0 01-3.615 3.616zm0-5.743a2.13 2.13 0 00-2.129 2.126c0 1.174.955 2.129 2.129 2.129a2.131 2.131 0 002.128-2.129 2.13 2.13 0 00-2.128-2.126z"></path><path d="M6.165 36.407a.746.746 0 01-.743-.746v-4.344a.744.744 0 111.486 0v4.344c0 .41-.333.746-.743.746zm25.808 5.912a3.619 3.619 0 01-3.615-3.614 3.62 3.62 0 013.615-3.617 3.621 3.621 0 013.615 3.617 3.62 3.62 0 01-3.615 3.614zm0-5.743a2.129 2.129 0 10.003 4.255 2.129 2.129 0 00-.003-4.255z"></path><path d="M31.973 46.666a.742.742 0 01-.742-.742v-4.349a.742.742 0 111.486 0v4.349a.743.743 0 01-.744.742zm12.268-14.31a3.618 3.618 0 01-3.614-3.616c0-1.993 1.621-3.614 3.614-3.614s3.615 1.621 3.615 3.614a3.62 3.62 0 01-3.615 3.616zm0-5.742a2.13 2.13 0 00-2.128 2.126c0 1.175.955 2.13 2.128 2.13a2.129 2.129 0 000-4.256z"></path><path d="M44.241 36.704a.743.743 0 01-.742-.745v-4.344a.742.742 0 111.484 0v4.344c0 .411-.33.745-.742.745z"></path><path d="M24.992 44.493c-6.482 0-12.586-.636-17.186-1.789C4.335 41.835.2 40.262.2 37.719c0-1.103.767-2.113 2.281-3.005a.744.744 0 01.755 1.284c-1 .588-1.55 1.199-1.55 1.722 0 2.208 8.867 5.288 23.306 5.288 1.368 0 2.738-.028 4.078-.086a.741.741 0 01.774.71.745.745 0 01-.712.774 97.552 97.552 0 01-4.14.087zm9.832-.472a.743.743 0 01-.076-1.482c4.189-.442 7.702-1.183 10.157-2.139 2.157-.84 3.392-1.817 3.392-2.682 0-.545-.578-1.068-1.063-1.41a.743.743 0 11.857-1.215c1.123.793 1.691 1.677 1.691 2.625 0 1.577-1.46 2.944-4.34 4.067-2.574 1.003-6.22 1.774-10.539 2.232a.685.685 0 01-.079.004z"></path></svg>