<svg xmlns="http://www.w3.org/2000/svg" viewBox="0 0 50 50"><path d="M49.008 23.622c.35-.833.538-1.724.538-2.612a.742.742 0 00-.741-.742h-1.594l-2.753-12.2h1.753a.743.743 0 000-1.485h-2.088l-.118-.521a.742.742 0 00-1.449.326l.044.195h-4.291c-2 0-3.74 1.282-4.334 3.191l-1.441 4.636c-.434 1.39-1.686 2.438-2.916 2.438h-2.48V5.182c0-.97.788-1.758 1.758-1.758a.742.742 0 000-1.484h-8.697a.742.742 0 100 1.484c.97 0 1.759.789 1.759 1.758v11.666h-2.586c-1.23 0-2.484-1.048-2.916-2.438l-1.442-4.636a4.517 4.517 0 00-4.333-3.191H7.445l.044-.195a.742.742 0 10-1.449-.326l-.117.521H3.744a.742.742 0 000 1.485h1.844l-2.753 12.2H1.243a.743.743 0 00-.743.742c0 .952.216 1.909.614 2.792a.786.786 0 00.064.134 7.005 7.005 0 001.152 1.716c1.219 1.337 2.816 2.072 4.497 2.072h1.078c1.681 0 3.278-.735 4.498-2.072a7.052 7.052 0 001.152-1.716.772.772 0 00.063-.133c.399-.883.615-1.84.615-2.792a.742.742 0 00-.742-.742h-1.587L8.95 11.092a.743.743 0 00-1.413.455l2.808 8.721H4.357l2.753-12.2h1.068a3.04 3.04 0 012.919 2.157l1.917 5.88a6.929 6.929 0 006.645 4.888h2.298v20.021h-.531a2.66 2.66 0 00-2.658 2.657v.097h-3.625a2.66 2.66 0 00-2.658 2.658v.838c0 .41.332.742.742.742h22.802c.41 0 .744-.332.744-.742v-.838a2.661 2.661 0 00-2.66-2.658h-3.625v-.097a2.659 2.659 0 00-2.657-2.657h-.694V20.993h2.192a6.931 6.931 0 006.646-4.889l1.916-5.88a3.038 3.038 0 012.92-2.157h2.125l2.754 12.2h-5.986l2.809-8.721a.744.744 0 00-1.414-.455l-2.953 9.176H36.56a.743.743 0 00-.744.742c0 1.676.668 3.369 1.83 4.644 1.219 1.336 2.816 2.07 4.498 2.07h1.078c1.68 0 3.277-.734 4.496-2.07a7.117 7.117 0 001.09-1.583.764.764 0 00.2-.448zM7.905 26.239H6.827c-1.45 0-2.799-.774-3.704-1.945h8.485c-.904 1.171-2.253 1.945-3.703 1.945zm4.518-3.429H2.309a5.317 5.317 0 01-.271-1.058h10.656a5.404 5.404 0 01-.271 1.058zm22.866 23.616v.096H13.968v-.096c0-.646.527-1.174 1.174-1.174h18.971c.649 0 1.176.525 1.176 1.174zm-6.284-2.755v.097h-8.753v-.097c0-.646.527-1.173 1.174-1.173h6.406c.647 0 1.173.525 1.173 1.173zm5.558-28.022a5.45 5.45 0 01-5.233 3.859h-2.937a.742.742 0 00-.742.742v20.762h-2.209V20.25a.742.742 0 00-.742-.742h-3.041a5.45 5.45 0 01-5.229-3.85l-.003-.009-1.916-5.88a4.574 4.574 0 00-.826-1.532 3.037 3.037 0 011.911 1.978l1.441 4.636c.627 2.018 2.45 3.481 4.334 3.481h3.328c.41 0 .742-.332.742-.742V5.182c0-.647-.191-1.251-.519-1.758h3.249a3.22 3.22 0 00-.52 1.758V17.59c0 .41.332.742.742.742h3.224c1.884 0 3.706-1.464 4.333-3.481l1.441-4.636a3.039 3.039 0 011.912-1.978 4.52 4.52 0 00-.826 1.532l-1.914 5.88zm13.445 6.103a5.266 5.266 0 01-.271 1.058H37.623a5.25 5.25 0 01-.271-1.058h10.656zm-4.789 4.487h-1.078c-1.449 0-2.799-.774-3.703-1.945h8.485c-.905 1.171-2.254 1.945-3.704 1.945z"></path></svg>