<svg xmlns="http://www.w3.org/2000/svg" viewBox="0 0 50 50"><path d="M43.245 18.593a.748.748 0 00-.706-.5H11.343a.743.743 0 00-.704.99l4.455 12.808a.746.746 0 001.409-.49l-.964-2.771h8.842l2.682 7.55H21.48a.747.747 0 000 1.494h27.353a.745.745 0 00.704-.991l-6.292-18.09zm1.392 8.543h-8.839l-2.683-7.552h8.896l2.626 7.552zm-13.105-7.552l2.682 7.552h-8.781l-2.683-7.552h8.782zM15.02 27.136l-2.626-7.552h8.774l2.684 7.552H15.02zm10.943 1.494h8.782l2.681 7.55h-8.779l-2.684-7.55zm13.049 7.55l-2.684-7.55h8.826l2.628 7.55h-8.77zm3.843-24.826c1.916 0 3.474-1.559 3.474-3.474s-1.558-3.473-3.474-3.473a3.478 3.478 0 00-3.474 3.473 3.48 3.48 0 003.474 3.474zm0-5.455a1.983 1.983 0 010 3.963c-1.09 0-1.98-.889-1.98-1.982a1.986 1.986 0 011.98-1.981zm0-2.749a.747.747 0 00.748-.747v-.835a.746.746 0 00-1.494 0v.834c0 .413.336.748.746.748zm-.746 10.208v2.62a.747.747 0 001.494 0v-2.62a.747.747 0 00-1.494 0zM30.375 8.627h.878a.747.747 0 100-1.493h-.878a.745.745 0 100 1.493zm3.999 0h3.005a.745.745 0 100-1.493h-3.005a.746.746 0 000 1.493zM49.17 7.135h-.836a.746.746 0 100 1.493h.836a.746.746 0 100-1.493zm-10.714-2.6a.742.742 0 001.055 0 .747.747 0 000-1.055l-1.726-1.726a.746.746 0 10-1.056 1.055l1.727 1.726zm7.746 6.691a.747.747 0 000 1.055l1.51 1.509a.74.74 0 00.526.218.747.747 0 00.529-1.273l-1.511-1.51a.748.748 0 00-1.054.001zm-7.746 0l-2.983 2.984a.746.746 0 001.054 1.055l2.982-2.984a.745.745 0 10-1.053-1.055zm8.273-6.473a.743.743 0 00.528-.219l2.077-2.077a.747.747 0 00-1.057-1.055L46.202 3.48a.747.747 0 00.527 1.273zM27.794 39.646c-.03.002-.728.06-1.55.236-1.181.258-2.026.635-2.512 1.119-.267.268-.483.631-.657 1.029-.19-.436-.41-.78-.659-1.029-1.086-1.084-3.76-1.331-4.061-1.355a.735.735 0 00-.589.215.74.74 0 00-.215.588c.002.029.061.727.239 1.549.256 1.182.633 2.027 1.118 2.511.806.808 2.483 1.151 3.42 1.285v2.379a.747.747 0 001.494 0v-2.38c.256-.038.57-.09.907-.163 1.18-.257 2.026-.632 2.511-1.118 1.087-1.086 1.334-3.76 1.357-4.063a.736.736 0 00-.217-.588.734.734 0 00-.586-.215zm-7.83 3.809c-.364-.364-.643-1.319-.801-2.198.878.156 1.834.438 2.197.802.364.363.644 1.319.801 2.197-.879-.158-1.834-.438-2.197-.801zm6.22 0c-.363.363-1.32.643-2.197.801.157-.877.436-1.833.802-2.197.363-.363 1.318-.644 2.197-.802-.159.88-.44 1.835-.802 2.198zm-7.246-9.305a.75.75 0 00-.804-.805c-.447.034-4.397.401-5.957 1.959-.576.576-.989 1.48-1.283 2.414-.293-.934-.707-1.838-1.283-2.414-1.559-1.558-5.509-1.924-5.955-1.959a.746.746 0 00-.805.805c.037.445.401 4.396 1.96 5.955 1.255 1.254 4.058 1.735 5.336 1.896v6.171a.745.745 0 101.492 0v-6.171c1.278-.16 4.082-.643 5.336-1.896 1.562-1.557 1.926-5.509 1.963-5.955zm-13.07 4.903c-.781-.781-1.222-2.775-1.418-4.109 1.334.195 3.327.639 4.108 1.418.78.781 1.222 2.771 1.419 4.107-1.321-.198-3.337-.644-4.109-1.416zm5.945 1.418c.197-1.334.639-3.328 1.42-4.109.78-.779 2.773-1.223 4.109-1.418-.197 1.332-.639 3.328-1.42 4.109-.78.78-2.774 1.22-4.109 1.418zm-4.418-7.908c.02 0 .039-.004.058-.006.02.002.039.006.059.006l.061-.002c.392-.033 3.859-.354 5.239-1.732a.745.745 0 10-1.055-1.055c-.59.591-2.139.992-3.39 1.188.194-1.248.596-2.798 1.189-3.392.182-.18.57-.454 1.392-.725a.747.747 0 00.476-.943.744.744 0 00-.943-.472c-.895.294-1.542.65-1.979 1.085-.085.086-.166.18-.243.278v-4.901a.761.761 0 00-.011-.118c.002-.033.005-.065.003-.098-.034-.41-.37-4.04-1.809-5.479S1.371 14.422.963 14.388a.746.746 0 00-.804.805c.034.408.369 4.039 1.81 5.479 1.124 1.123 3.581 1.575 4.8 1.735v4.545c-.11-.16-.23-.309-.357-.438-1.382-1.378-4.849-1.699-5.239-1.73a.744.744 0 00-.805.804c.033.394.352 3.859 1.732 5.24 1.38 1.38 4.848 1.698 5.239 1.731a.246.246 0 00.056.004zM3.02 19.618c-.634-.635-1.063-2.305-1.266-3.631 1.327.204 2.996.631 3.63 1.267.636.635 1.064 2.305 1.268 3.632-1.327-.204-2.996-.632-3.632-1.268zm.131 10.155c-.59-.592-.993-2.141-1.189-3.391 1.25.196 2.798.6 3.389 1.188.592.594.995 2.143 1.189 3.393-1.248-.195-2.797-.598-3.389-1.19zm6.998-18.78v4.47a.746.746 0 101.493 0v-4.47c1.113-.146 3.337-.56 4.361-1.584 1.318-1.319 1.622-4.619 1.654-4.991a.747.747 0 00-.805-.804c-.372.03-3.674.335-4.991 1.653-.414.414-.728 1.025-.965 1.677-.237-.652-.55-1.263-.965-1.677-1.317-1.317-4.618-1.623-4.99-1.653a.746.746 0 00-.806.804c.029.372.335 3.673 1.653 4.991 1.024 1.025 3.247 1.438 4.361 1.584zm2.767-4.672c.545-.545 1.97-.921 3.138-1.108-.185 1.168-.56 2.592-1.107 3.14-.547.545-1.972.921-3.142 1.107.187-1.167.562-2.591 1.111-3.139zm-4.041 0c.546.546.921 1.971 1.108 3.14-1.169-.185-2.592-.559-3.14-1.106-.547-.547-.922-1.971-1.108-3.14 1.17.185 2.593.561 3.14 1.106zM7.404 42.896a.745.745 0 00-.746.746v4.53a.746.746 0 001.492 0v-4.53a.745.745 0 00-.746-.746zm40.662-4.319H30.755a.745.745 0 100 1.491h2.179v7.643a.745.745 0 101.49 0v-7.643h8.896v7.643a.747.747 0 101.492 0v-7.643h3.254a.746.746 0 100-1.491z"></path></svg>