<svg xmlns="http://www.w3.org/2000/svg" viewBox="0 0 50 50"><path d="M12.241 19.68h25.963a.778.778 0 00.511-1.366l-3.186-2.774V3.049a.78.78 0 00-.78-.78h-19.07a.78.78 0 00-.779.78v12.494l-3.172 2.771a.78.78 0 00.513 1.366zm4.217-15.852H33.97v11.294H16.458V3.828zm-.492 12.853h18.502l1.654 1.44H14.317l1.649-1.44zm9.249 13.949c-1.469 0-2.664 1.195-2.664 2.665s1.195 2.664 2.664 2.664c1.47 0 2.665-1.194 2.665-2.664s-1.195-2.665-2.665-2.665zm0 3.771c-.61 0-1.106-.497-1.106-1.106s.496-1.106 1.106-1.106c.61 0 1.106.497 1.106 1.106s-.496 1.106-1.106 1.106zm-.772-12.851v7.065a.78.78 0 101.559 0V21.55a.78.78 0 00-1.559 0zm8.219 21.021a2.667 2.667 0 00-2.665 2.665 2.667 2.667 0 002.665 2.664 2.667 2.667 0 002.664-2.664 2.668 2.668 0 00-2.664-2.665zm0 3.771c-.61 0-1.106-.496-1.106-1.105 0-.61.496-1.106 1.106-1.106a1.106 1.106 0 010 2.211zm6.433-11.735a2.667 2.667 0 00-2.665 2.664 2.667 2.667 0 002.665 2.665 2.667 2.667 0 002.664-2.665 2.668 2.668 0 00-2.664-2.664zm0 3.771a1.106 1.106 0 010-2.211 1.107 1.107 0 010 2.211zm8.24-9.633a2.667 2.667 0 00-2.664 2.665 2.667 2.667 0 002.664 2.664A2.667 2.667 0 0050 31.41a2.667 2.667 0 00-2.665-2.665zm0 3.771a1.107 1.107 0 01-1.106-1.105 1.107 1.107 0 012.212 0c0 .609-.496 1.105-1.106 1.105zm-10.309.806a.778.778 0 101.453-.565l-.444-1.145a6.731 6.731 0 00-3.708-3.773 5.172 5.172 0 01-3.134-3.968l-.379-2.441a.78.78 0 10-1.54.24l.38 2.441a6.73 6.73 0 004.083 5.171 5.163 5.163 0 012.845 2.896l.444 1.144zm8.827-5.248a.78.78 0 00.696-1.131l-.504-.996a3.827 3.827 0 00-3.432-2.111h-4.766a2.288 2.288 0 01-2.285-2.286.779.779 0 10-1.558 0 3.85 3.85 0 003.844 3.845h4.766c.867 0 1.649.481 2.04 1.254l.504.997a.773.773 0 00.695.428zM32.601 41.241a.78.78 0 00.779-.78v-1.889c0-1.039-.104-2.082-.31-3.1l-.854-4.236a.78.78 0 00-1.528.309l.854 4.235c.185.916.278 1.855.278 2.792v1.889c0 .431.35.78.781.78zm-14.75 1.33a2.668 2.668 0 00-2.665 2.665c0 1.469 1.196 2.664 2.665 2.664s2.665-1.195 2.665-2.664a2.669 2.669 0 00-2.665-2.665zm0 3.771c-.61 0-1.106-.496-1.106-1.105a1.107 1.107 0 012.212 0c0 .609-.496 1.105-1.106 1.105zm-6.433-11.735a2.668 2.668 0 00-2.665 2.664c0 1.47 1.195 2.665 2.665 2.665s2.665-1.195 2.665-2.665a2.668 2.668 0 00-2.665-2.664zm0 3.771a1.106 1.106 0 110-2.213 1.106 1.106 0 010 2.213zm-8.241-9.633A2.668 2.668 0 00.512 31.41a2.668 2.668 0 002.665 2.664 2.668 2.668 0 002.665-2.664 2.668 2.668 0 00-2.665-2.665zm0 3.771a1.106 1.106 0 11.002-2.212 1.106 1.106 0 01-.002 2.212zM20.588 20.78a.78.78 0 00-.89.65l-.379 2.441a5.168 5.168 0 01-3.133 3.968 6.725 6.725 0 00-3.708 3.773l-.445 1.145a.78.78 0 001.453.565l.445-1.144a5.153 5.153 0 012.845-2.896 6.736 6.736 0 004.083-5.171l.379-2.441a.779.779 0 00-.65-.89zm-4.078.77a.779.779 0 10-1.559 0 2.289 2.289 0 01-2.286 2.286H7.9a3.829 3.829 0 00-3.432 2.111l-.503.996a.78.78 0 101.391.703l.504-.997a2.276 2.276 0 012.04-1.254h4.765a3.85 3.85 0 003.845-3.845zm2.182 18.911v-1.889c0-.936.093-1.875.278-2.792l.853-4.235a.78.78 0 10-1.527-.309l-.854 4.236a15.738 15.738 0 00-.309 3.1v1.889a.78.78 0 101.559 0z"></path></svg>