<?xml version="1.0" encoding="utf-8"?>
<svg viewBox="0 0 50 50" xmlns="http://www.w3.org/2000/svg">
  <path d="M15.974 35.173h14.67a.84.84 0 00.569-.221l4.1-3.773a.837.837 0 00.271-.619V15.563a.841.841 0 00-.841-.841H20.127a.842.842 0 00-.607.259l-4.152 4.337a.842.842 0 00-.234.582v14.433a.84.84 0 00.84.84zm.841-14.936l3.671-3.834h13.417V30.19l-3.587 3.302H16.815V20.237z"/>
  <path d="M48.952 22.369a.841.841 0 100-1.682h-5.678V15.53h5.678a.841.841 0 100-1.682h-5.678V7.874a.842.842 0 00-.841-.841h-6.038v-5.74a.84.84 0 10-1.681 0v5.739h-5.157V1.293a.841.841 0 10-1.682 0v5.739h-5.157V1.293a.841.841 0 10-1.682 0v5.739h-5.157V1.293a.841.841 0 10-1.682 0v5.739H8.286a.84.84 0 00-.841.841v5.976H1.644a.841.841 0 100 1.682h5.801v5.157H1.644a.841.841 0 100 1.682h5.801v5.156H1.644a.842.842 0 000 1.683h5.801v5.156H1.644a.842.842 0 000 1.682h5.801v5.976a.84.84 0 00.841.841H14.2v5.739a.84.84 0 101.682 0v-5.739h5.157v5.739a.84.84 0 101.682 0v-5.739h5.157v5.739a.84.84 0 101.682 0v-5.739h5.157v5.739a.841.841 0 101.681 0v-5.739h6.038a.841.841 0 00.841-.841v-5.976h5.678a.842.842 0 000-1.682h-5.678v-5.156h5.678a.842.842 0 000-1.683h-5.678V22.37h5.675zm-7.36 18.812H9.126V8.714h32.466v32.467z"/>
</svg>