<svg xmlns="http://www.w3.org/2000/svg" viewBox="0 0 50 50"><path d="M49.609 26.575c-.383-.62-.981-1.046-1.691-1.201s-1.434-.02-2.043.386l-10.294 6.983a.551.551 0 01-.104.034l-.033.008h-.002a.618.618 0 01-.129.021l-11.359.144h-.004a.563.563 0 01-.003-1.126l3.917-.024 3.543-.032a3.011 3.011 0 002.171-.945 3.011 3.011 0 00.825-2.221c-.07-1.6-1.448-2.891-3.078-2.891h-.028l-9.544.087a3.049 3.049 0 00-.979.173c-2.002.493-8.224 4.196-11.774 6.372a7.52 7.52 0 00-1.789 1.528l-7.01 8.22a.749.749 0 101.138.972l7.01-8.22a6.04 6.04 0 011.432-1.225c5.781-3.543 10.139-5.919 11.372-6.199.032-.007.063-.017.094-.026a1.53 1.53 0 01.518-.099l9.543-.087h.016c.839 0 1.548.652 1.585 1.46a1.534 1.534 0 01-1.517 1.604l-3.541.03-3.914.025a2.062 2.062 0 00-2.047 2.071 2.064 2.064 0 002.064 2.047h.014l11.357-.145a1.88 1.88 0 00.445-.058c.103-.021.362-.083.602-.231.009-.006.02-.012.027-.018L46.711 27a1.156 1.156 0 011.625.357c.321.522.15 1.236-.382 1.591a.696.696 0 00-.052.038l-10.301 8.188a2.518 2.518 0 01-.845.388c-7.748 1.955-13.037 3.262-13.473 3.326-.535.074-5.87.034-9.107-.008h-.01a.744.744 0 00-.613.32l-4.595 6.59a.747.747 0 00.614 1.177.753.753 0 00.615-.319l4.367-6.266c2.027.024 8.199.092 8.941-.014.68-.098 9.755-2.378 13.627-3.355.49-.123.949-.337 1.363-.631l.029-.023 10.293-8.185c1.197-.813 1.548-2.387.802-3.599zM19.4 13.706a.707.707 0 00-.12.135 14.474 14.474 0 00-3.698 9.672.749.749 0 101.497 0c0-.458.024-.91.071-1.355h5.299c-.021.446-.033.897-.033 1.355a.749.749 0 101.497 0c0-.457.012-.909.036-1.355h5.421v1.355a.748.748 0 101.496 0v-1.355h5.422c.022.446.034.898.034 1.355a.747.747 0 101.496 0c0-.458-.012-.91-.032-1.355h5.299c.047.446.069.897.069 1.355a.75.75 0 001.498 0c0-3.711-1.4-7.101-3.698-9.672a.671.671 0 00-.12-.135 14.5 14.5 0 00-10.716-4.727A14.5 14.5 0 0019.4 13.706zm-2.003 6.955a13.003 13.003 0 012.674-5.45c.982.491 2.092.902 3.288 1.228a23.943 23.943 0 00-.801 4.222h-5.161zm11.971-4.86a25.197 25.197 0 01-4.052-.438c.997-2.568 2.439-4.355 4.052-4.784v5.222zm4.84-4.664a13.04 13.04 0 014.878 2.928 17 17 0 01-2.684.954c-.586-1.557-1.332-2.877-2.194-3.882zm.708 4.226a25.185 25.185 0 01-4.053.438v-5.222c1.614.429 3.057 2.216 4.053 4.784zm-11.085-.344c-.966-.26-1.87-.579-2.685-.954a13.04 13.04 0 014.877-2.928c-.862 1.005-1.607 2.325-2.192 3.882zm.239 5.642c.153-1.381.413-2.687.762-3.873a26.5 26.5 0 004.537.51v3.363H24.07zm6.793 0v-3.363a26.5 26.5 0 004.537-.51 22.88 22.88 0 01.763 3.873h-5.3zm6.811 0a23.883 23.883 0 00-.8-4.223c1.194-.326 2.306-.737 3.287-1.228a12.993 12.993 0 012.675 5.45l-5.162.001zm-26.615-7.186a.748.748 0 00-1.496 0v.744a.748.748 0 101.496 0v-.744zm-.748 3.977a.748.748 0 00-.748.749v.744a.747.747 0 101.496 0v-.744a.748.748 0 00-.748-.749zm-2.734-.494h.743a.748.748 0 100-1.496h-.743a.747.747 0 100 1.496zm4.725 0h.743a.748.748 0 000-1.496h-.743a.749.749 0 100 1.496zm5.595-13.714a.747.747 0 00.748-.748v-.744a.747.747 0 10-1.496 0v.744c0 .413.335.748.748.748zm0 4.726a.748.748 0 00.748-.749v-.743a.748.748 0 10-1.496 0v.743c0 .413.335.749.748.749zm-2.734-2.735h.743a.75.75 0 000-1.498h-.743a.75.75 0 000 1.498zm4.726 0h.743a.749.749 0 100-1.498h-.743a.749.749 0 100 1.498zm25.482 2.443a.748.748 0 00.747-.749v-.743a.747.747 0 10-1.495 0v.744c0 .412.334.748.748.748zm0 4.725a.748.748 0 00.747-.749v-.743a.748.748 0 10-1.495 0v.743c0 .414.334.749.748.749zm-2.734-2.735h.743a.748.748 0 000-1.497h-.743a.749.749 0 000 1.497zm4.724 0h.744a.748.748 0 100-1.497h-.744a.747.747 0 100 1.497zM25.645 4.872a.803.803 0 110 1.606.803.803 0 010-1.606zm14.701-3.179a.804.804 0 11-.001 1.607.804.804 0 01.001-1.607zm7.759 15.705a.803.803 0 110 1.606.803.803 0 010-1.606zM10.311 6.418a.803.803 0 110 1.606.803.803 0 010-1.606z"></path></svg>