<svg xmlns="http://www.w3.org/2000/svg" viewBox="0 0 50 50"><path d="M35.407 33.323c-.47 0-.987.139-1.427.378a2.6 2.6 0 00-2.264-1.326c-.461 0-.896.121-1.271.334a2.713 2.713 0 00-.576-.852 2.568 2.568 0 00-1.813-.754h-.025a2.619 2.619 0 00-1.025.22v-5.912a2.609 2.609 0 00-2.601-2.611c-1.436 0-2.56 1.147-2.56 2.611v10.171l-.872.684-.034.028a4.646 4.646 0 00-1.574 3.483V44.2c0 1.146.405 2.255 1.142 3.131l1.221 2.12a.772.772 0 001.055.283.773.773 0 00.285-1.055l-1.256-2.184a.742.742 0 00-.087-.121 3.32 3.32 0 01-.813-2.176v-4.422c0-.834.34-1.631.934-2.211v.922a.772.772 0 001.545 0V25.412c0-.607.436-1.065 1.014-1.065.582 0 1.055.478 1.055 1.065v7.979a.777.777 0 00-.015.146v4.983a.773.773 0 001.545 0v-4.863c.005-.025.011-.051.013-.076.036-.516.493-.924 1.042-.93h.01c.271 0 .526.107.729.308.213.211.334.499.334.793v1.179a.598.598 0 00-.014.121v3.471a.772.772 0 001.544 0v-3.412a.588.588 0 00.014-.12c0-.589.475-1.066 1.056-1.066.576 0 1.044.47 1.054 1.048-.002.027-.008.055-.008.081v3.47a.771.771 0 101.544 0V35.65c.004-.031.01-.063.01-.099 0-.377.658-.681 1.089-.681.59 0 1.088.486 1.088 1.064v8.291c0 1.143-.317 2.26-.919 3.231l-.742 1.203a.773.773 0 00.656 1.177.764.764 0 00.656-.366l.744-1.201a7.694 7.694 0 001.148-4.047v-8.289c.002-1.439-1.179-2.61-2.631-2.61zM23.458 7.975v7.256a.773.773 0 101.546 0V7.974a2.667 2.667 0 001.887-2.548c0-1.469-1.193-2.664-2.663-2.664s-2.664 1.195-2.664 2.664c0 1.201.8 2.218 1.894 2.549zm.771-3.667a1.12 1.12 0 010 2.236 1.12 1.12 0 01-1.119-1.118 1.12 1.12 0 011.119-1.118zm19.769 4.519a2.665 2.665 0 00-2.663-2.664 2.667 2.667 0 00-2.664 2.664c0 1.201.8 2.218 1.896 2.549v3.415l-1.889 1.115a.774.774 0 00.787 1.331l2.268-1.339a.775.775 0 00.379-.666v-3.857a2.671 2.671 0 001.886-2.548zm-2.562 1.107c-.033-.004-.063-.01-.098-.01-.033 0-.066.006-.1.01a1.116 1.116 0 01-1.022-1.108c0-.617.503-1.119 1.119-1.119s1.118.502 1.118 1.119c0 .583-.449 1.056-1.017 1.108zm-16.561 7.548a.736.736 0 00-.215-.213.735.735 0 00-.278-.115.785.785 0 00-.794.328.738.738 0 00-.114.278.767.767 0 00.757.923c.05 0 .101-.005.151-.014a.834.834 0 00.278-.115.793.793 0 00.286-.347.783.783 0 00.059-.296.698.698 0 00-.016-.151.753.753 0 00-.114-.278zM19.63 28.789a.772.772 0 101.27-.88 4.15 4.15 0 01-.74-2.373 4.178 4.178 0 014.174-4.173 4.176 4.176 0 013.61 6.269.773.773 0 101.336.779 5.707 5.707 0 00.773-2.874c0-.919-.22-1.788-.605-2.558l3.734-2.241a.776.776 0 00.375-.663v-2.002a2.668 2.668 0 001.889-2.547 2.666 2.666 0 00-2.664-2.664 2.666 2.666 0 00-2.663 2.664c0 1.201.799 2.218 1.894 2.549v1.563L28.572 21.7a5.705 5.705 0 00-8.48.006l-3.64-2.08v-1.554a2.668 2.668 0 001.888-2.547 2.667 2.667 0 00-2.664-2.664 2.667 2.667 0 00-2.664 2.664c0 1.201.799 2.218 1.894 2.549v2.001c0 .277.149.533.39.671l3.922 2.241a5.69 5.69 0 00-.602 2.55 5.675 5.675 0 001.014 3.252zm12.033-13.264a1.12 1.12 0 011.118-1.118c.615 0 1.117.501 1.117 1.118 0 .582-.447 1.056-1.018 1.107-.031-.004-.063-.01-.097-.01-.035 0-.067.006-.101.01a1.113 1.113 0 01-1.019-1.107zm-17.106 0a1.119 1.119 0 012.236 0c0 .582-.449 1.056-1.018 1.107-.032-.004-.063-.01-.097-.01s-.067.006-.1.01a1.114 1.114 0 01-1.021-1.107zm21.582 2.779a.773.773 0 001.059.273l.175-.103a.773.773 0 10-.788-1.331l-.174.103a.772.772 0 00-.272 1.058zm-23.387-.35l-2.793-1.531V8.076a2.668 2.668 0 001.888-2.547 2.667 2.667 0 00-2.664-2.664 2.667 2.667 0 00-2.664 2.664c0 1.201.799 2.218 1.895 2.549v8.802c0 .282.153.542.401.678l3.194 1.752a.775.775 0 001.05-.306.774.774 0 00-.307-1.05zM8.065 5.529a1.119 1.119 0 012.236 0c0 .582-.448 1.056-1.018 1.107-.032-.004-.064-.01-.097-.01-.034 0-.067.006-.101.01a1.114 1.114 0 01-1.02-1.107zm27.451-3.582a.771.771 0 00.772-.773V1.01a.772.772 0 10-1.543 0v.164a.77.77 0 00.771.773zm-3.039 10.038a.772.772 0 00.771-.772V8.375l2.636-1.43a.773.773 0 00.404-.68V3.934a.772.772 0 00-1.543 0v1.873l-2.637 1.429a.774.774 0 00-.403.68v3.298a.77.77 0 00.772.771zM15.678 3.844a.773.773 0 00-.773.773v5.771a.773.773 0 101.546 0V4.617a.773.773 0 00-.773-.773zm-.714-1.817c.02.046.043.092.071.134a.846.846 0 00.214.214.773.773 0 10-.285-.348z"></path></svg>