<?xml version="1.0" encoding="utf-8"?>
<svg viewBox="0 0 50 50" xmlns="http://www.w3.org/2000/svg">
  <path d="M 24.396 12.82 C 24.636 12.949 24.925 12.949 25.165 12.82 C 28.248 11.182 29.41 8.716 29.838 6.935 C 30.301 5.017 30.034 3.479 30.024 3.414 C 29.955 3.023 29.614 2.738 29.217 2.739 C 27.165 2.739 25.381 0.974 25.363 0.957 C 25.042 0.634 24.518 0.635 24.198 0.959 C 24.18 0.977 22.381 2.741 20.345 2.741 C 19.948 2.741 19.608 3.025 19.538 3.416 C 19.526 3.481 19.259 5.019 19.722 6.937 C 20.153 8.716 21.313 11.182 24.396 12.82 L 24.396 12.82 Z M 21.092 4.327 C 22.705 4.102 24.052 3.206 24.781 2.623 C 25.509 3.205 26.856 4.101 28.466 4.326 C 28.52 5.711 28.262 9.088 24.781 11.157 C 21.274 9.075 21.029 5.713 21.092 4.327 Z M 49.913 35.543 C 49.843 35.152 49.502 34.868 49.105 34.868 C 47.052 34.868 45.269 33.103 45.251 33.087 C 45.097 32.931 44.886 32.843 44.667 32.844 C 44.448 32.844 44.238 32.931 44.084 33.087 C 44.064 33.106 42.27 34.868 40.23 34.868 C 39.833 34.869 39.493 35.153 39.422 35.543 C 39.409 35.607 39.144 37.147 39.605 39.064 C 40.04 40.84 41.197 43.31 44.282 44.949 C 44.524 45.077 44.813 45.077 45.055 44.949 C 48.139 43.31 49.297 40.845 49.729 39.064 C 50.191 37.146 49.925 35.607 49.913 35.543 Z M 44.67 43.284 C 41.163 41.203 40.919 37.842 40.981 36.455 C 42.596 36.23 43.944 35.335 44.67 34.752 C 45.399 35.335 46.743 36.229 48.356 36.455 C 48.409 37.84 48.148 41.217 44.67 43.284 Z M 9.765 34.979 C 7.713 34.979 5.929 33.214 5.912 33.201 C 5.59 32.878 5.068 32.878 4.746 33.201 C 4.728 33.22 2.928 34.979 0.893 34.979 C 0.496 34.979 0.156 35.264 0.086 35.655 C 0.074 35.718 -0.192 37.259 0.27 39.176 C 0.7 40.956 1.86 43.422 4.944 45.063 C 5.063 45.126 5.195 45.159 5.329 45.159 C 5.461 45.159 5.593 45.129 5.713 45.063 C 8.797 43.422 9.957 40.959 10.387 39.176 C 10.849 37.258 10.583 35.721 10.571 35.655 C 10.502 35.264 10.162 34.979 9.765 34.979 Z M 5.329 43.395 C 1.822 41.313 1.577 37.956 1.64 36.565 C 3.252 36.34 4.6 35.446 5.329 34.862 C 6.057 35.446 7.403 36.341 9.013 36.565 C 9.068 37.949 8.808 41.326 5.329 43.395 L 5.329 43.395 Z M 37.993 42.389 C 34.233 45.599 29.452 47.362 24.508 47.362 C 20.092 47.374 15.788 45.966 12.233 43.346 C 11.723 42.973 11.001 43.291 10.932 43.919 C 10.9 44.21 11.026 44.497 11.263 44.67 C 15.101 47.494 19.743 49.012 24.508 49 C 29.842 49 35.002 47.097 39.059 43.634 C 39.538 43.224 39.394 42.449 38.799 42.239 C 38.522 42.141 38.215 42.199 37.993 42.389 L 37.993 42.389 Z M 32.459 7.307 C 36.261 8.832 39.527 11.447 41.846 14.823 C 44.231 18.283 45.505 22.388 45.496 26.59 C 45.496 27.874 45.38 29.158 45.146 30.409 C 45.053 30.912 45.437 31.377 45.948 31.38 C 46.343 31.379 46.682 31.097 46.755 30.709 C 47.005 29.359 47.136 27.975 47.136 26.59 C 47.144 22.055 45.768 17.626 43.193 13.893 C 40.691 10.252 37.169 7.432 33.07 5.786 C 32.477 5.57 31.872 6.077 31.982 6.698 C 32.029 6.968 32.208 7.197 32.459 7.307 L 32.459 7.307 Z M 3.575 31.761 C 4.093 31.76 4.481 31.285 4.379 30.777 C 4.098 29.399 3.956 27.996 3.957 26.59 C 3.959 18.345 8.833 10.881 16.381 7.564 C 16.958 7.31 17.045 6.527 16.536 6.154 C 16.3 5.98 15.99 5.946 15.722 6.064 C 7.578 9.642 2.319 17.695 2.317 26.59 C 2.317 28.111 2.47 29.629 2.772 31.108 C 2.851 31.488 3.186 31.761 3.575 31.761 Z"/>
</svg>